<?xml version="1.0" encoding="utf-8"?>
<!-- Generator: Adobe Illustrator 23.0.1, SVG Export Plug-In . SVG Version: 6.00 Build 0)  -->
<svg version="1.1" id="Calque_1" xmlns="http://www.w3.org/2000/svg" xmlns:xlink="http://www.w3.org/1999/xlink" x="0px" y="0px"
	 viewBox="0 0 141.7 141.7" style="enable-background:new 0 0 141.7 141.7;" xml:space="preserve">
<style type="text/css">
	.st0{fill:#E7E51D;}
	.st1{fill:#FFFFFF;}
</style>
<path class="st0" d="M102,12.1l-59.6-1.2c-3-0.1-5.9,1.5-7.4,4.1L4.1,66c-1.6,2.6-1.6,5.8-0.2,8.5l28.8,52.2
	c1.5,2.6,4.2,4.3,7.2,4.4l59.6,1.2c3,0.1,5.9-1.5,7.4-4.1l30.8-51c1.6-2.6,1.6-5.8,0.2-8.5l-28.8-52.2C107.7,13.8,105,12.1,102,12.1
	z"/>
<g>
	<g>
		<g>
			<path class="st1" d="M99.9,46.9c-0.4,0.2-0.8,0.5-1.1,0.9c-0.6,0.6-1.2,1.2-1.8,1.8c-0.5,0.5-1,1.2-1,1.9
				c-0.1,0.8,0.3,1.7,0.7,2.4c0.4,0.6,0.7,1.3,1.1,1.9c0.6,0.9,1.3,1.8,2.1,2.6c0.1,0.1,0.2,0.2,0.3,0.2c0.1,0,0.2,0,0.3-0.1
				c2.5-1.6,3.8-4.7,3.3-7.6c-0.1-0.3-0.2-0.7-0.3-1C103,48.5,101.6,46,99.9,46.9z"/>
			<path class="st1" d="M98.2,45.1c-0.2,0.4-0.5,0.8-0.9,1.1c-0.6,0.6-1.2,1.2-1.8,1.8c-0.5,0.5-1.2,1-1.9,1
				c-0.8,0.1-1.7-0.3-2.4-0.7c-0.6-0.4-1.3-0.7-1.9-1.1c-0.9-0.6-1.8-1.3-2.6-2.1c-0.1-0.1-0.2-0.2-0.2-0.3c0-0.1,0-0.2,0.1-0.3
				c1.6-2.5,4.7-3.8,7.6-3.3c0.3,0.1,0.7,0.2,1,0.3C96.6,42,99,43.4,98.2,45.1z"/>
			<path class="st1" d="M87.5,49.6c-3.3-0.9-7.2,0.6-9.6,3.4c-0.4,0.5-0.8,1-1.1,1.6c-0.4,0.9-0.6,1.9-0.8,2.8
				c-0.1,0.7-0.3,1.4-0.2,2c0.1,0.6,0.3,1.1,0.6,1.6c1.7,2.9,4,5.4,6.8,7.2c0.7,0.4,1.5,0.8,2.3,0.9c0.7,0,1.4-0.2,2-0.4
				c2.1-0.8,4-2.4,5.3-4.3c0.5-0.7,0.8-1.5,1.2-2.3c0.4-1,0.8-2.1,0.8-3.1c0-0.7-0.1-1.4-0.2-2c-0.1-0.8-0.2-1.7-0.6-2.4
				c-0.5-0.8-1.3-1.4-1.9-2.1C90.8,51.2,89.3,50,87.5,49.6z"/>
			<path class="st1" d="M74.8,48.3c-10.5-6.1-21.1-12.1-32.5-16.2c-1.1-0.4-2.3-0.8-3.5-0.9c-1.6-0.1-3.2,0.6-4.7,1.1
				c-0.9,0.3-1.8,0.7-2.3,1.5c-0.8,1.1-0.3,2.7,0.2,4c1.4,3.4,3.5,6.5,6,9.2c4.9,5.3,11.3,9,18.3,10.7c1.1,0.3,2.2,0.5,3.3,0.3
				c1.1-0.1,2.2-0.7,2.8-1.6c0.5-0.8,0.6-1.8,1.1-2.6c1.4,0.7,3.1,0.5,4.6,0c1.5-0.5,2.8-1.3,4.3-1.9c0.2-0.1,0.4-0.1,0.6-0.1
				c0.2,0.1,0.4,0.3,0.6,0.4c1.1,1.1,3,1.1,4.1,0.1C77.2,50.2,76.7,49.4,74.8,48.3z"/>
			<path class="st1" d="M94.9,68.4c6.1,10.5,12.1,21.1,16.2,32.5c0.4,1.1,0.8,2.3,0.9,3.5c0.1,1.6-0.6,3.2-1.1,4.7
				c-0.3,0.9-0.7,1.8-1.5,2.3c-1.1,0.8-2.7,0.3-4-0.2c-3.4-1.4-6.5-3.5-9.2-6c-5.3-4.9-9-11.3-10.7-18.3c-0.3-1.1-0.5-2.2-0.3-3.3
				c0.1-1.1,0.7-2.2,1.6-2.8c0.8-0.5,1.8-0.6,2.6-1.1c-0.7-1.4-0.5-3.1,0-4.6c0.5-1.5,1.3-2.8,1.9-4.3c0.1-0.2,0.1-0.4,0.1-0.6
				c-0.1-0.2-0.3-0.4-0.4-0.6c-1.1-1.1-1.1-3-0.1-4.1C93,66,93.8,66.5,94.9,68.4z"/>
		</g>
		<g>
			<path class="st1" d="M99.9,46.9c-0.4,0.2-0.8,0.5-1.1,0.9c-0.6,0.6-1.2,1.2-1.8,1.8c-0.5,0.5-1,1.2-1,1.9
				c-0.1,0.8,0.3,1.7,0.7,2.4c0.4,0.6,0.7,1.3,1.1,1.9c0.6,0.9,1.3,1.8,2.1,2.6c0.1,0.1,0.2,0.2,0.3,0.2c0.1,0,0.2,0,0.3-0.1
				c2.5-1.6,3.8-4.7,3.3-7.6c-0.1-0.3-0.2-0.7-0.3-1C103,48.5,101.6,46,99.9,46.9z"/>
			<path class="st1" d="M98.2,45.1c-0.2,0.4-0.5,0.8-0.9,1.1c-0.6,0.6-1.2,1.2-1.8,1.8c-0.5,0.5-1.2,1-1.9,1
				c-0.8,0.1-1.7-0.3-2.4-0.7c-0.6-0.4-1.3-0.7-1.9-1.1c-0.9-0.6-1.8-1.3-2.6-2.1c-0.1-0.1-0.2-0.2-0.2-0.3c0-0.1,0-0.2,0.1-0.3
				c1.6-2.5,4.7-3.8,7.6-3.3c0.3,0.1,0.7,0.2,1,0.3C96.6,42,99,43.4,98.2,45.1z"/>
			<path class="st1" d="M87.5,49.6c-3.3-0.9-7.2,0.6-9.6,3.4c-0.4,0.5-0.8,1-1.1,1.6c-0.4,0.9-0.6,1.9-0.8,2.8
				c-0.1,0.7-0.3,1.4-0.2,2c0.1,0.6,0.3,1.1,0.6,1.6c1.7,2.9,4,5.4,6.8,7.2c0.7,0.4,1.5,0.8,2.3,0.9c0.7,0,1.4-0.2,2-0.4
				c2.1-0.8,4-2.4,5.3-4.3c0.5-0.7,0.8-1.5,1.2-2.3c0.4-1,0.8-2.1,0.8-3.1c0-0.7-0.1-1.4-0.2-2c-0.1-0.8-0.2-1.7-0.6-2.4
				c-0.5-0.8-1.3-1.4-1.9-2.1C90.8,51.2,89.3,50,87.5,49.6z"/>
			<path class="st1" d="M74.8,48.3c-10.5-6.1-21.1-12.1-32.5-16.2c-1.1-0.4-2.3-0.8-3.5-0.9c-1.6-0.1-3.2,0.6-4.7,1.1
				c-0.9,0.3-1.8,0.7-2.3,1.5c-0.8,1.1-0.3,2.7,0.2,4c1.4,3.4,3.5,6.5,6,9.2c4.9,5.3,11.3,9,18.3,10.7c1.1,0.3,2.2,0.5,3.3,0.3
				c1.1-0.1,2.2-0.7,2.8-1.6c0.5-0.8,0.6-1.8,1.1-2.6c1.4,0.7,3.1,0.5,4.6,0c1.5-0.5,2.8-1.3,4.3-1.9c0.2-0.1,0.4-0.1,0.6-0.1
				c0.2,0.1,0.4,0.3,0.6,0.4c1.1,1.1,3,1.1,4.1,0.1C77.2,50.2,76.7,49.4,74.8,48.3z"/>
			<path class="st1" d="M94.9,68.4c6.1,10.5,12.1,21.1,16.2,32.5c0.4,1.1,0.8,2.3,0.9,3.5c0.1,1.6-0.6,3.2-1.1,4.7
				c-0.3,0.9-0.7,1.8-1.5,2.3c-1.1,0.8-2.7,0.3-4-0.2c-3.4-1.4-6.5-3.5-9.2-6c-5.3-4.9-9-11.3-10.7-18.3c-0.3-1.1-0.5-2.2-0.3-3.3
				c0.1-1.1,0.7-2.2,1.6-2.8c0.8-0.5,1.8-0.6,2.6-1.1c-0.7-1.4-0.5-3.1,0-4.6c0.5-1.5,1.3-2.8,1.9-4.3c0.1-0.2,0.1-0.4,0.1-0.6
				c-0.1-0.2-0.3-0.4-0.4-0.6c-1.1-1.1-1.1-3-0.1-4.1C93,66,93.8,66.5,94.9,68.4z"/>
		</g>
	</g>
	<g>
		<path class="st1" d="M99.7,39.2c0.3-0.9,0.9-1.7,1.7-2c0.6,0.2,1,1,0.7,1.6c-0.1,0.3-0.3,0.5-0.4,0.7c-0.4,0.6-0.8,4-1.8,3.9
			C98.7,43.4,99.5,39.8,99.7,39.2z"/>
		<path class="st1" d="M107.6,46.7c0.9-0.3,1.7-0.9,2-1.7c-0.2-0.6-1-1-1.6-0.7c-0.3,0.1-0.5,0.3-0.7,0.4c-0.6,0.4-4,0.8-3.9,1.8
			C103.4,47.8,107,46.9,107.6,46.7z"/>
	</g>
	<g>
		<g>
			<path class="st1" d="M65.2,100.9l-8.5-12.2l-2.5-0.1v12.3H43.2V65.6c2-0.4,4.2-0.8,6.5-1.1c2.3-0.3,4.6-0.4,6.7-0.4
				c5.9,0,10.3,1,13.3,3c3,2,4.5,5.1,4.5,9.3c0,2.4-0.6,4.5-1.7,6.3c-1.2,1.8-2.8,3.1-5,4.1l10,14.1H65.2z M54.3,80.8
				c1.2,0.1,2.3,0.2,3.4,0.2c2,0,3.4-0.4,4.4-1.1c1-0.7,1.5-1.9,1.5-3.5c0-3.1-2-4.6-5.9-4.6c-1.1,0-2.3,0.1-3.4,0.3V80.8z"/>
		</g>
		<g>
			<path class="st1" d="M65.2,100.9l-8.5-12.2l-2.5-0.1v12.3H43.2V65.6c2-0.4,4.2-0.8,6.5-1.1c2.3-0.3,4.6-0.4,6.7-0.4
				c5.9,0,10.3,1,13.3,3c3,2,4.5,5.1,4.5,9.3c0,2.4-0.6,4.5-1.7,6.3c-1.2,1.8-2.8,3.1-5,4.1l10,14.1H65.2z M54.3,80.8
				c1.2,0.1,2.3,0.2,3.4,0.2c2,0,3.4-0.4,4.4-1.1c1-0.7,1.5-1.9,1.5-3.5c0-3.1-2-4.6-5.9-4.6c-1.1,0-2.3,0.1-3.4,0.3V80.8z"/>
		</g>
	</g>
</g>
</svg>
